<svg width="86" height="86" viewBox="0 0 86 86" fill="none" xmlns="http://www.w3.org/2000/svg">
<path d="M25.8125 28.9374C33.5663 28.9374 39.875 22.6287 39.875 14.8749C39.1366 -3.76728 12.4855 -3.76203 11.75 14.8751C11.75 22.6287 18.0587 28.9374 25.8125 28.9374ZM25.8125 3.93744C31.8435 3.93744 36.75 8.8439 36.75 14.8749C36.2365 29.3508 15.3863 29.3471 14.875 14.8748C14.875 8.8439 19.7815 3.93744 25.8125 3.93744Z" fill="#333333"/>
<path d="M39.5622 69.5625H3.9375V53.9375C3.9375 43.5989 12.3489 35.1875 22.6875 35.1875H28.9375C35.9245 35.1875 42.2798 39.022 45.5238 45.1957C46.4656 47.0024 49.2411 45.552 48.2886 43.7415C44.5045 36.5379 37.0887 32.0625 28.9375 32.0625H22.6875C10.6254 32.0625 0.8125 41.8754 0.8125 53.9375V71.125C0.8125 71.9879 1.51212 72.6875 2.375 72.6875H39.5622C41.5988 72.6698 41.6128 69.5782 39.5622 69.5625Z" fill="#333333"/>
<path d="M63.3125 41.4375C51.2504 41.4375 41.4375 51.2504 41.4375 63.3125C42.6389 92.3327 83.9906 92.3243 85.1875 63.3123C85.1875 51.2504 75.3746 41.4375 63.3125 41.4375ZM63.3125 82.0625C52.9731 82.0625 44.5625 73.6511 44.5625 63.3125C45.5922 38.438 81.0366 38.4452 82.0625 63.3126C82.0625 73.6511 73.6519 82.0625 63.3125 82.0625Z" fill="#333333"/>
<path d="M71.125 55.5H68V53.9375C68 51.3527 65.8973 49.25 63.3125 49.25C60.7277 49.25 58.625 51.3527 58.625 53.9375V55.5H55.5C54.6974 55.5 54.0245 56.1081 53.9451 56.9069L52.3826 72.5319C52.2742 73.4226 53.0397 74.2702 53.9375 74.25L72.6875 74.25C73.5839 74.2692 74.3521 73.4235 74.2423 72.5318L72.6799 56.9069C72.6005 56.1081 71.9276 55.5 71.125 55.5ZM61.75 53.9375C61.7606 51.8944 64.8648 51.895 64.875 53.9376L64.875 55.5H61.75V53.9375ZM55.6648 71.125L56.9145 58.625H58.625V60.1875C58.625 61.0504 59.3238 61.75 60.1875 61.75C61.0511 61.75 61.75 61.0504 61.75 60.1875V58.625H64.875V60.1875C64.875 61.0504 65.5738 61.75 66.4375 61.75C67.3011 61.75 68 61.0504 68 60.1875V58.625H69.7105L70.9602 71.125H55.6648Z" fill="#333333"/>
</svg>
