<svg width="50" height="50" viewBox="0 0 50 50" fill="none" xmlns="http://www.w3.org/2000/svg">
<g clip-path="url(#clip0_113_29)">
<path d="M48.4375 38.2814H43.75V29.6876C43.75 29.4804 43.6677 29.2817 43.5212 29.1352C43.3747 28.9887 43.1759 28.9064 42.9688 28.9064H38.8125L39.8438 22.7814C39.862 22.6688 39.8554 22.5536 39.8244 22.4439C39.7934 22.3342 39.7388 22.2326 39.6643 22.1462C39.5899 22.0598 39.4974 21.9908 39.3934 21.944C39.2895 21.8972 39.1765 21.8737 39.0625 21.8751H24.5391L26.3359 20.0861C26.4092 20.0134 26.4673 19.927 26.5069 19.8318C26.5466 19.7366 26.567 19.6345 26.567 19.5314C26.567 19.4283 26.5466 19.3261 26.5069 19.2309C26.4673 19.1357 26.4092 19.0493 26.3359 18.9767L19.3047 11.9454C19.2321 11.8722 19.1457 11.8141 19.0505 11.7744C18.9552 11.7348 18.8531 11.7144 18.75 11.7144C18.6469 11.7144 18.5448 11.7348 18.4495 11.7744C18.3543 11.8141 18.2679 11.8722 18.1953 11.9454L11.1641 18.9767C11.0908 19.0493 11.0327 19.1357 10.9931 19.2309C10.9534 19.3261 10.933 19.4283 10.933 19.5314C10.933 19.6345 10.9534 19.7366 10.9931 19.8318C11.0327 19.927 11.0908 20.0134 11.1641 20.0861L12.9609 21.8751H9.375C9.26099 21.8737 9.14803 21.8972 9.04407 21.944C8.9401 21.9908 8.84765 22.0598 8.7732 22.1462C8.69875 22.2326 8.6441 22.3342 8.6131 22.4439C8.5821 22.5536 8.5755 22.6688 8.59375 22.7814L11.7188 41.5314C11.7487 41.7163 11.8441 41.8842 11.9875 42.0047C12.1308 42.1251 12.3127 42.19 12.5 42.1876H25.7812V42.9689H10.8203L7.03125 20.1876C7.0013 20.0028 6.90594 19.8348 6.76255 19.7144C6.61915 19.5939 6.43726 19.529 6.25 19.5314H0.78125V21.0939H5.58594L9.375 43.8751C9.40495 44.06 9.50031 44.228 9.6437 44.3484C9.7871 44.4689 9.96899 44.5338 10.1562 44.5314H12.9375C12.6535 45.0033 12.5023 45.5431 12.5 46.0939C12.5 46.9227 12.8292 47.7175 13.4153 48.3036C14.0013 48.8896 14.7962 49.2189 15.625 49.2189C16.4538 49.2189 17.2487 48.8896 17.8347 48.3036C18.4208 47.7175 18.75 46.9227 18.75 46.0939C18.7477 45.5431 18.5965 45.0033 18.3125 44.5314H25.7812V48.4376C25.7812 48.6448 25.8636 48.8436 26.0101 48.9901C26.1566 49.1366 26.3553 49.2189 26.5625 49.2189H48.4375C48.6447 49.2189 48.8434 49.1366 48.9899 48.9901C49.1364 48.8436 49.2188 48.6448 49.2188 48.4376V39.0626C49.2188 38.8554 49.1364 38.6567 48.9899 38.5102C48.8434 38.3637 48.6447 38.2814 48.4375 38.2814ZM17.1875 46.0939C17.1875 46.4029 17.0959 46.705 16.9242 46.962C16.7525 47.2189 16.5085 47.4192 16.2229 47.5374C15.9374 47.6557 15.6233 47.6867 15.3202 47.6264C15.0171 47.5661 14.7387 47.4173 14.5201 47.1987C14.3016 46.9802 14.1528 46.7018 14.0925 46.3987C14.0322 46.0956 14.0632 45.7815 14.1814 45.4959C14.2997 45.2104 14.5 44.9664 14.7569 44.7947C15.0139 44.623 15.316 44.5314 15.625 44.5314C16.0394 44.5314 16.4368 44.696 16.7299 44.989C17.0229 45.2821 17.1875 45.6795 17.1875 46.0939ZM42.1875 39.8439H43.75V42.1876H42.1875V39.8439ZM42.1875 38.2814H32.8125V30.4689H35.1562V33.5939C35.1562 33.8011 35.2386 33.9998 35.3851 34.1463C35.5316 34.2928 35.7303 34.3751 35.9375 34.3751H39.0625C39.2697 34.3751 39.4684 34.2928 39.6149 34.1463C39.7614 33.9998 39.8438 33.8011 39.8438 33.5939V30.4689H42.1875V38.2814ZM31.25 39.8439H32.8125V42.1876H31.25V39.8439ZM38.2812 30.4689V32.8126H36.7188V30.4689H38.2812ZM16.4062 15.9454L17.6484 17.1876L16.4062 18.4298L15.1641 17.1876L16.4062 15.9454ZM12.8203 19.5314L14.0625 18.2892L15.8516 20.0861C15.9242 20.1593 16.0106 20.2174 16.1058 20.2571C16.201 20.2967 16.3031 20.3172 16.4062 20.3172C16.5094 20.3172 16.6115 20.2967 16.7067 20.2571C16.8019 20.2174 16.8883 20.1593 16.9609 20.0861L19.3047 17.7423C19.3779 17.6697 19.436 17.5833 19.4757 17.4881C19.5154 17.3929 19.5358 17.2908 19.5358 17.1876C19.5358 17.0845 19.5154 16.9824 19.4757 16.8872C19.436 16.792 19.3779 16.7056 19.3047 16.6329L17.5078 14.8439L18.75 13.6017L24.6797 19.5314L22.3359 21.8751H15.1641L12.8203 19.5314ZM38.1406 23.4376L37.8828 25.0001H10.5391L10.2812 23.4376H38.1406ZM25.7812 39.0626V40.6251H13.1641L10.8203 26.5626H37.6172L37.2266 28.9064H32.0312C31.824 28.9064 31.6253 28.9887 31.4788 29.1352C31.3323 29.2817 31.25 29.4804 31.25 29.6876V38.2814H26.5625C26.3553 38.2814 26.1566 38.3637 26.0101 38.5102C25.8636 38.6567 25.7812 38.8554 25.7812 39.0626ZM27.3438 39.8439H29.6875V42.9689C29.6875 43.1761 29.7698 43.3748 29.9163 43.5213C30.0628 43.6678 30.2615 43.7501 30.4688 43.7501H33.5938C33.8009 43.7501 33.9997 43.6678 34.1462 43.5213C34.2927 43.3748 34.375 43.1761 34.375 42.9689V39.8439H36.7188V47.6564H27.3438V39.8439ZM47.6562 47.6564H38.2812V39.8439H40.625V42.9689C40.625 43.1761 40.7073 43.3748 40.8538 43.5213C41.0003 43.6678 41.1991 43.7501 41.4062 43.7501H44.5312C44.7384 43.7501 44.9372 43.6678 45.0837 43.5213C45.2302 43.3748 45.3125 43.1761 45.3125 42.9689V39.8439H47.6562V47.6564Z" fill="#333333"/>
<path d="M33.8203 16.1798C33.8929 16.253 33.9793 16.3112 34.0745 16.3508C34.1698 16.3905 34.2719 16.4109 34.375 16.4109C34.4781 16.4109 34.5802 16.3905 34.6754 16.3508C34.7706 16.3112 34.8571 16.253 34.9297 16.1798L41.9609 9.14857C42.0342 9.07595 42.0923 8.98954 42.1319 8.89434C42.1716 8.79913 42.192 8.69702 42.192 8.59389C42.192 8.49075 42.1716 8.38864 42.1319 8.29343C42.0923 8.19823 42.0342 8.11182 41.9609 8.0392L34.9297 1.00795C34.8571 0.934723 34.7706 0.876602 34.6754 0.836939C34.5802 0.797276 34.4781 0.776855 34.375 0.776855C34.2719 0.776855 34.1698 0.797276 34.0745 0.836939C33.9793 0.876602 33.8929 0.934723 33.8203 1.00795L26.7891 8.0392C26.7158 8.11182 26.6577 8.19823 26.6181 8.29343C26.5784 8.38864 26.558 8.49075 26.558 8.59389C26.558 8.69702 26.5784 8.79913 26.6181 8.89434C26.6577 8.98954 26.7158 9.07595 26.7891 9.14857L33.8203 16.1798ZM37.9609 6.25014L36.7187 7.49232L35.4766 6.25014L36.7187 5.00795L37.9609 6.25014ZM34.375 2.6642L35.6172 3.90639L33.8203 5.69545C33.7471 5.76807 33.689 5.85448 33.6493 5.94968C33.6096 6.04489 33.5892 6.147 33.5892 6.25014C33.5892 6.35327 33.6096 6.45538 33.6493 6.55059C33.689 6.64579 33.7471 6.7322 33.8203 6.80482L36.1641 9.14857C36.2367 9.2218 36.3231 9.27992 36.4183 9.31958C36.5135 9.35924 36.6156 9.37967 36.7187 9.37967C36.8219 9.37967 36.924 9.35924 37.0192 9.31958C37.1144 9.27992 37.2008 9.2218 37.2734 9.14857L39.0625 7.3517L40.3047 8.59389L34.375 14.5236L28.4453 8.59389L34.375 2.6642Z" fill="#333333"/>
</g>
<defs>
<clipPath id="clip0_113_29">
<rect width="50" height="50" fill="white"/>
</clipPath>
</defs>
</svg>
