<svg width="36" height="36" viewBox="0 0 36 36" fill="none" xmlns="http://www.w3.org/2000/svg">
<g clip-path="url(#clip0_113_24)">
<rect width="36" height="36" rx="18" fill="white"/>
<path d="M18 33C20.9667 33 23.8668 32.1203 26.3336 30.472C28.8003 28.8238 30.7229 26.4811 31.8582 23.7403C32.9935 20.9994 33.2906 17.9834 32.7118 15.0737C32.133 12.1639 30.7044 9.49119 28.6066 7.3934C26.5088 5.29562 23.8361 3.86701 20.9264 3.28823C18.0166 2.70945 15.0006 3.0065 12.2597 4.14181C9.51886 5.27713 7.17618 7.19972 5.52796 9.66645C3.87973 12.1332 3 15.0333 3 18C3 21.9783 4.58035 25.7936 7.3934 28.6066C8.78628 29.9995 10.4399 31.1044 12.2597 31.8582C14.0796 32.612 16.0302 33 18 33ZM12.4395 16.9395C12.5787 16.8002 12.744 16.6896 12.926 16.6142C13.108 16.5388 13.303 16.5 13.5 16.5C13.697 16.5 13.892 16.5388 14.074 16.6142C14.256 16.6896 14.4213 16.8002 14.5605 16.9395L16.5 18.8789L21.4395 13.9395C21.7224 13.6663 22.1013 13.5151 22.4946 13.5185C22.8879 13.5219 23.2641 13.6797 23.5422 13.9578C23.8203 14.2359 23.9781 14.6121 23.9815 15.0054C23.9849 15.3987 23.8337 15.7776 23.5605 16.0605L17.5605 22.0605C17.4213 22.1998 17.2559 22.3104 17.074 22.3858C16.892 22.4612 16.697 22.5 16.5 22.5C16.303 22.5 16.108 22.4612 15.926 22.3858C15.7441 22.3104 15.5787 22.1998 15.4395 22.0605L12.4395 19.0605C12.3002 18.9213 12.1896 18.756 12.1142 18.574C12.0388 18.392 11.9999 18.197 11.9999 18C11.9999 17.803 12.0388 17.608 12.1142 17.426C12.1896 17.244 12.3002 17.0787 12.4395 16.9395Z" fill="#1B9BEF"/>
</g>
<defs>
<clipPath id="clip0_113_24">
<rect width="36" height="36" rx="18" fill="white"/>
</clipPath>
</defs>
</svg>
